<?xml version="1.0" encoding="utf-8"?>
<svg version="1.1" xmlns:xlink="http://www.w3.org/1999/xlink" width="9px" height="39px" xmlns="http://www.w3.org/2000/svg">
  <g transform="matrix(1 0 0 1 -11 -116 )">
    <path d="M 8.845360824742267 2.344689378757513  C 8.948453608247425 2.605210420841679  9 2.904809619238472  9 3.243486973947897  C 9 3.582164328657313  8.948453608247425 3.8817635270541064  8.845360824742267 4.142284569138276  L 2.768041237113402 19.5  L 8.845360824742267 34.857715430861724  C 8.948453608247425 35.118236472945895  9 35.41783567134268  9 35.756513026052104  C 9 36.09519038076152  8.948453608247425 36.394789579158314  8.845360824742267 36.655310621242485  L 8.072164948453608 38.609218436873746  C 7.969072164948455 38.86973947895792  7.850515463917527 39  7.716494845360824 39  C 7.582474226804125 39  7.463917525773198 38.86973947895792  7.360824742268041 38.609218436873746  L 0.15463917525773196 20.39879759519038  C 0.05154639175257736 20.13827655310621  0 19.838677354709418  0 19.5  C 0 19.16132264529058  0.05154639175257736 18.861723446893787  0.15463917525773196 18.60120240480962  L 7.360824742268041 0.3907815631262529  C 7.463917525773198 0.13026052104208286  7.582474226804125 0  7.716494845360824 0  C 7.850515463917527 0  7.969072164948455 0.13026052104208286  8.072164948453608 0.3907815631262529  L 8.845360824742267 2.344689378757513  Z " fill-rule="nonzero" fill="#000000" stroke="none" transform="matrix(1 0 0 1 11 116 )" />
  </g>
</svg>