<?xml version="1.0" encoding="utf-8"?>
<svg version="1.1" xmlns:xlink="http://www.w3.org/1999/xlink" width="9px" height="39px" xmlns="http://www.w3.org/2000/svg">
  <g transform="matrix(1 0 0 1 -371 -116 )">
    <path d="M 8.845360824742267 18.60120240480962  C 8.948453608247425 18.861723446893787  9 19.16132264529058  9 19.5  C 9 19.838677354709418  8.948453608247425 20.13827655310621  8.845360824742267 20.39879759519038  L 1.6391752577319587 38.609218436873746  C 1.5360824742268042 38.86973947895792  1.4175257731958761 39  1.2835051546391751 39  C 1.1494845360824744 39  1.0309278350515465 38.86973947895792  0.9278350515463917 38.609218436873746  L 0.15463917525773196 36.655310621242485  C 0.05154639175257736 36.394789579158314  0 36.09519038076152  0 35.756513026052104  C 0 35.41783567134268  0.05154639175257736 35.118236472945895  0.15463917525773196 34.857715430861724  L 6.231958762886598 19.5  L 0.15463917525773196 4.142284569138276  C 0.05154639175257736 3.8817635270541064  0 3.582164328657313  0 3.243486973947897  C 0 2.904809619238472  0.05154639175257736 2.605210420841679  0.15463917525773196 2.344689378757513  L 0.9278350515463917 0.3907815631262529  C 1.0309278350515465 0.13026052104208286  1.1494845360824744 0  1.2835051546391751 0  C 1.4175257731958761 0  1.5360824742268042 0.13026052104208286  1.6391752577319587 0.3907815631262529  L 8.845360824742267 18.60120240480962  Z " fill-rule="nonzero" fill="#8c8c8c" stroke="none" transform="matrix(1 0 0 1 371 116 )" />
  </g>
</svg>