<?xml version="1.0" encoding="utf-8"?>
<svg version="1.1" xmlns:xlink="http://www.w3.org/1999/xlink" width="78px" height="78px" xmlns="http://www.w3.org/2000/svg">
  <g transform="matrix(1 0 0 1 -157 -120 )">
    <path d="M 11.332633805309733 49.973488672566376  C 7.251612371681417 39.69221203539824  9.259853522123896 28.363436814159293  15.933640513274336 20.208371150442485  L 15.869090363893804 24.766321168141594  L 25.04604093026549 24.95997528849558  L 25.393900429380533 4.7380197132743405  L 5.175617066548672 4.393749801769915  L 4.98555253380531 13.570700368141596  L 9.450320162123894 13.631665520176993  C 0.20919768424778554 24.361870121946907  -2.667062669734514 39.585026582123895  2.798015613451327 53.36224941398231  C 8.779682374513275 68.44586180336285  23.221024816991154 77.93485861752212  38.89953561345132 77.93485861752212  C 41.54609908247787 77.93485861752212  44.22855842761062 77.6623070139823  46.91101777274335 77.10646258566372  L 45.03543529486726 68.11954901044248  C 30.8524329939823 71.074578320177  16.675857064778757 63.44684235557523  11.332788038230085 49.97331148831859  Z M 75.19791557522124 24.633387079646017  C 68.2049215221239 7.011357876106194  49.65400619469027 -2.972469557522125  31.09189061946903 0.8934520353982284  L 32.96389269026549 9.880365610619465  C 47.14689499115044 6.925336300884952  61.32347092035399 14.553072265486723  66.66653994690266 28.019258707964593  C 70.75114178761062 38.307879769911494  68.7393202300885 49.64767162831857  62.058372424778774 57.801819238938045  L 62.11575074336284 53.20439293805309  L 52.93521976991152 53.03225798230087  L 52.623228605309755 73.25054134513273  L 72.8415119681416 73.56253250973451  L 73.01364692389382 64.38558194336282  L 68.58119476460178 64.32820362477875  C 77.79752980884956 53.6053434477876  80.66277352566371 38.4005480495575  75.19760343716814 24.6334238017699  Z " fill-rule="nonzero" fill="#d7d7d7" stroke="none" transform="matrix(1 0 0 1 157 120 )" />
  </g>
</svg>