<?xml version="1.0" encoding="utf-8"?>
<svg version="1.1" xmlns:xlink="http://www.w3.org/1999/xlink" width="39px" height="24px" xmlns="http://www.w3.org/2000/svg">
  <g transform="matrix(1 0 0 1 -47 -11 )">
    <path d="M 38.8375 11.791666666666666  L 39 12  C 38.98645833333334 12.444444444444441  37.036458333333336 13.11111111111111  33.15 13.999999999999998  L 26 14.666666666666668  L 21.450000000000003 16  L 20.150000000000002 16  L 14.1984375 23.333333333333332  L 15.600000000000001 23.333333333333332  C 15.952083333333334 23.333333333333332  16.256770833333334 23.364583333333336  16.5140625 23.427083333333332  C 16.77135416666667 23.489583333333332  16.900000000000002 23.569444444444443  16.900000000000002 23.666666666666668  C 16.900000000000002 23.76388888888889  16.77135416666667 23.84375  16.5140625 23.90625  C 16.256770833333334 23.96875  15.952083333333334 24  15.600000000000001 24  L 13.649999999999999 24  L 10.4 24  L 9.1 24  L 9.1 23.333333333333332  L 10.4 23.333333333333332  L 10.4 14.666666666666668  L 7.1499999999999995 14.666666666666668  L 3.25 19.333333333333336  L 1.3 19.333333333333336  L 0.65 18.666666666666668  L 0.65 14.666666666666668  L 1.3 14.666666666666668  L 1.3 13.999999999999998  L 3.9000000000000004 13.999999999999998  L 3.9000000000000004 13.833333333333332  L 0 13.333333333333334  L 0 10.666666666666666  L 3.9000000000000004 10.166666666666668  L 3.9000000000000004 10  L 1.3 10  L 1.3 9.333333333333332  L 0.65 9.333333333333332  L 0.65 5.333333333333333  L 1.3 4.666666666666666  L 3.25 4.666666666666666  L 7.1499999999999995 9.333333333333332  L 10.4 9.333333333333332  L 10.4 0.666666666666667  L 9.1 0.666666666666667  L 9.1 0  L 10.4 0  L 13.649999999999999 0  L 15.600000000000001 0  C 15.952083333333334 0  16.256770833333334 0.03125000000000089  16.5140625 0.09375  C 16.77135416666667 0.1562499999999991  16.900000000000002 0.23611111111110983  16.900000000000002 0.33333333333333215  C 16.900000000000002 0.4305555555555518  16.77135416666667 0.5104166666666679  16.5140625 0.572916666666667  C 16.256770833333334 0.6354166666666661  15.952083333333334 0.666666666666667  15.600000000000001 0.666666666666667  L 14.1984375 0.666666666666667  L 20.150000000000002 8  L 21.450000000000003 8  L 26 9.333333333333332  L 33.15 10  C 34.88333333333333 10.38888888888889  36.237500000000004 10.75  37.2125 11.083333333333334  C 38.1875 11.416666666666666  38.729166666666664 11.652777777777775  38.8375 11.791666666666666  Z " fill-rule="nonzero" fill="#000000" stroke="none" transform="matrix(1 0 0 1 47 11 )" />
  </g>
</svg>