<?xml version="1.0" encoding="utf-8"?>
<svg version="1.1" xmlns:xlink="http://www.w3.org/1999/xlink" width="55px" height="33px" xmlns="http://www.w3.org/2000/svg">
  <g transform="matrix(1 0 0 1 -19 -45 )">
    <path d="M 54.770833333333336 16.213541666666664  L 55 16.5  C 54.98090277777778 17.111111111111107  52.230902777777786 18.02777777777778  46.75 19.249999999999996  L 36.666666666666664 20.166666666666668  L 30.250000000000004 22.000000000000004  L 28.416666666666668 22.000000000000004  L 20.0234375 32.083333333333336  L 22 32.083333333333336  C 22.49652777777778 32.083333333333336  22.92621527777778 32.126302083333336  23.2890625 32.212239583333336  C 23.651909722222225 32.29817708333333  23.833333333333336 32.40798611111111  23.833333333333336 32.54166666666667  C 23.833333333333336 32.67534722222222  23.651909722222225 32.78515625  23.2890625 32.87109375  C 22.92621527777778 32.95703125  22.49652777777778 33  22 33  L 19.25 33  L 14.666666666666666 33  L 12.833333333333334 33  L 12.833333333333334 32.083333333333336  L 15 32.083333333333336  L 15 20.166666666666668  L 10.083333333333332 20.166666666666668  L 4.583333333333333 26.583333333333336  L 1.8333333333333333 26.583333333333336  L 0.9166666666666666 25.666666666666668  L 0.9166666666666666 20.166666666666668  L 1.8333333333333333 20.166666666666668  L 1.8333333333333333 19.249999999999996  L 5.5 19.249999999999996  L 5.5 19.020833333333332  L 0 18.333333333333336  L 0 14.666666666666666  L 5.5 13.979166666666668  L 5.5 13.749999999999998  L 1.8333333333333333 13.749999999999998  L 1.8333333333333333 12.833333333333332  L 0.9166666666666666 12.833333333333332  L 0.9166666666666666 7.333333333333333  L 1.8333333333333333 6.416666666666666  L 4.583333333333333 6.416666666666666  L 10.083333333333332 12.833333333333332  L 15 12.833333333333332  L 15 0.9166666666666671  L 12.833333333333334 0.9166666666666671  L 12.833333333333334 0  L 14.666666666666666 0  L 19.25 0  L 22 0  C 22.49652777777778 0  22.92621527777778 0.04296875000000122  23.2890625 0.12890625  C 23.651909722222225 0.21484374999999878  23.833333333333336 0.324652777777776  23.833333333333336 0.4583333333333317  C 23.833333333333336 0.5920138888888837  23.651909722222225 0.7018229166666683  23.2890625 0.7877604166666671  C 22.92621527777778 0.8736979166666659  22.49652777777778 0.9166666666666671  22 0.9166666666666671  L 20.0234375 0.9166666666666671  L 28.416666666666668 11.000000000000002  L 30.250000000000004 11.000000000000002  L 36.666666666666664 12.833333333333332  L 46.75 13.749999999999998  C 49.19444444444445 14.284722222222221  51.10416666666667 14.781249999999998  52.47916666666667 15.239583333333334  C 53.854166666666664 15.697916666666666  54.61805555555556 16.022569444444443  54.770833333333336 16.213541666666664  Z " fill-rule="nonzero" fill="#000000" stroke="none" transform="matrix(1 0 0 1 19 45 )" />
  </g>
</svg>