<?xml version="1.0" encoding="utf-8"?>
<svg version="1.1" xmlns:xlink="http://www.w3.org/1999/xlink" width="45px" height="27px" xmlns="http://www.w3.org/2000/svg">
  <g transform="matrix(1 0 0 1 -63 -48 )">
    <path d="M 44.8125 13.265625  L 45 13.5  C 44.984375 13.999999999999996  42.73437500000001 14.75  38.25 15.749999999999998  L 30 16.5  L 24.750000000000004 18.000000000000004  L 23.250000000000004 18.000000000000004  L 16.3828125 26.25  L 18 26.25  C 18.406250000000004 26.25  18.757812500000004 26.28515625  19.0546875 26.35546875  C 19.351562500000004 26.42578125  19.5 26.515625  19.5 26.625  C 19.5 26.734375  19.351562500000004 26.82421875  19.0546875 26.89453125  C 18.757812500000004 26.96484375  18.406250000000004 27  18 27  L 15.749999999999998 27  L 12 27  L 10.5 27  L 10.5 26.25  L 12 26.25  L 12 16.5  L 8.25 16.5  L 3.75 21.75  L 1.5 21.75  L 0.75 21  L 0.75 16.5  L 1.5 16.5  L 1.5 15.749999999999998  L 4.5 15.749999999999998  L 4.5 15.562499999999998  L 0 15  L 0 12  L 4.5 11.437500000000002  L 4.5 11.249999999999998  L 1.5 11.249999999999998  L 1.5 10.499999999999998  L 0.75 10.499999999999998  L 0.75 6  L 1.5 5.249999999999999  L 3.75 5.249999999999999  L 8.25 10.499999999999998  L 12 10.499999999999998  L 12 0.7500000000000003  L 10.5 0.7500000000000003  L 10.5 0  L 12 0  L 15.749999999999998 0  L 18 0  C 18.406250000000004 0  18.757812500000004 0.035156250000001  19.0546875 0.10546875  C 19.351562500000004 0.175781249999999  19.5 0.26562499999999856  19.5 0.37499999999999867  C 19.5 0.4843749999999958  19.351562500000004 0.5742187500000013  19.0546875 0.6445312500000003  C 18.757812500000004 0.7148437499999993  18.406250000000004 0.7500000000000003  18 0.7500000000000003  L 16.3828125 0.7500000000000003  L 23.250000000000004 9.000000000000002  L 24.750000000000004 9.000000000000002  L 30 10.499999999999998  L 38.25 11.249999999999998  C 40.25 11.6875  41.8125 12.093749999999998  42.9375 12.46875  C 44.0625 12.84375  44.6875 13.109374999999998  44.8125 13.265625  Z " fill-rule="nonzero" fill="#000000" stroke="none" transform="matrix(1 0 0 1 63 48 )" />
  </g>
</svg>