<?xml version="1.0" encoding="utf-8"?>
<svg version="1.1" xmlns:xlink="http://www.w3.org/1999/xlink" width="12px" height="12px" viewBox="70 175.5  12 12" xmlns="http://www.w3.org/2000/svg">
  <path d="M 76 175.5  C 79.36 175.5  82 178.14  82 181.5  C 82 184.86  79.36 187.5  76 187.5  C 72.64 187.5  70 184.86  70 181.5  C 70 178.14  72.64 175.5  76 175.5  Z " fill-rule="nonzero" fill="#f0f0f0" stroke="none" />
  <path d="M 76 176  C 79.08 176  81.5 178.42  81.5 181.5  C 81.5 184.58  79.08 187  76 187  C 72.92 187  70.5 184.58  70.5 181.5  C 70.5 178.42  72.92 176  76 176  Z " stroke-width="1" stroke="#797979" fill="none" />
  <path d="M 76 184.5  C 74.32 184.5  73 183.18  73 181.5  C 73 179.82  74.32 178.5  76 178.5  C 77.68 178.5  79 179.82  79 181.5  C 79 183.18  77.68 184.5  76 184.5  " fill-rule="nonzero" fill="#797979" stroke="none" />
</svg>