<?xml version="1.0" encoding="utf-8"?>
<svg version="1.1" xmlns:xlink="http://www.w3.org/1999/xlink" width="12px" height="12px" viewBox="70 197.5  12 12" xmlns="http://www.w3.org/2000/svg">
  <path d="M 76 197.5  C 79.36 197.5  82 200.14  82 203.5  C 82 206.86  79.36 209.5  76 209.5  C 72.64 209.5  70 206.86  70 203.5  C 70 200.14  72.64 197.5  76 197.5  Z " fill-rule="nonzero" fill="#f0f0f0" stroke="none" />
  <path d="M 76 198  C 79.08 198  81.5 200.42  81.5 203.5  C 81.5 206.58  79.08 209  76 209  C 72.92 209  70.5 206.58  70.5 203.5  C 70.5 200.42  72.92 198  76 198  Z " stroke-width="1" stroke="#797979" fill="none" />
  <path d="M 76 206.5  C 74.32 206.5  73 205.18  73 203.5  C 73 201.82  74.32 200.5  76 200.5  C 77.68 200.5  79 201.82  79 203.5  C 79 205.18  77.68 206.5  76 206.5  " fill-rule="nonzero" fill="#797979" stroke="none" />
</svg>