<?xml version="1.0" encoding="utf-8"?>
<svg version="1.1" xmlns:xlink="http://www.w3.org/1999/xlink" width="12px" height="12px" viewBox="70 220.5  12 12" xmlns="http://www.w3.org/2000/svg">
  <path d="M 76 220.5  C 79.36 220.5  82 223.14  82 226.5  C 82 229.86  79.36 232.5  76 232.5  C 72.64 232.5  70 229.86  70 226.5  C 70 223.14  72.64 220.5  76 220.5  Z " fill-rule="nonzero" fill="#ffffff" stroke="none" />
  <path d="M 76 221  C 79.08 221  81.5 223.42  81.5 226.5  C 81.5 229.58  79.08 232  76 232  C 72.92 232  70.5 229.58  70.5 226.5  C 70.5 223.42  72.92 221  76 221  Z " stroke-width="1" stroke="#797979" fill="none" />
  <path d="M 76 229.5  C 74.32 229.5  73 228.18  73 226.5  C 73 224.82  74.32 223.5  76 223.5  C 77.68 223.5  79 224.82  79 226.5  C 79 228.18  77.68 229.5  76 229.5  " fill-rule="nonzero" fill="#797979" stroke="none" />
</svg>