<?xml version="1.0" encoding="utf-8"?>
<svg version="1.1" xmlns:xlink="http://www.w3.org/1999/xlink" width="15px" height="16px" xmlns="http://www.w3.org/2000/svg">
  <g transform="matrix(1 0 0 1 -38 -39 )">
    <path d="M 9.19921875 9.8125  C 9.989483173076923 8.969551282051281  10.384615384615385 7.955128205128204  10.384615384615385 6.76923076923077  C 10.384615384615385 5.583333333333332  9.989483173076923 4.5689102564102555  9.19921875 3.7259615384615383  C 8.408954326923078 2.8830128205128194  7.4579326923076925 2.4615384615384617  6.346153846153846 2.4615384615384617  C 5.234375000000001 2.4615384615384617  4.283353365384616 2.8830128205128194  3.493088942307692 3.7259615384615383  C 2.7028245192307696 4.5689102564102555  2.307692307692308 5.583333333333332  2.307692307692308 6.76923076923077  C 2.307692307692308 7.955128205128204  2.7028245192307696 8.969551282051281  3.493088942307692 9.8125  C 4.283353365384616 10.655448717948715  5.234375000000001 11.076923076923077  6.346153846153846 11.076923076923077  C 7.4579326923076925 11.076923076923077  8.408954326923078 10.655448717948715  9.19921875 9.8125  Z M 14.666466346153847 13.903846153846153  C 14.888822115384617 14.141025641025642  15 14.42948717948718  15 14.76923076923077  C 15 15.102564102564104  14.885817307692308 15.391025641025642  14.657451923076923 15.634615384615385  C 14.42908653846154 15.878205128205128  14.158653846153847 16  13.846153846153847 16  C 13.521634615384615 16  13.251201923076923 15.878205128205128  13.034855769230768 15.634615384615385  L 9.942908653846153 12.346153846153847  C 8.8671875 13.141025641025642  7.668269230769232 13.538461538461538  6.346153846153846 13.538461538461538  C 5.486778846153847 13.538461538461538  4.6649639423076925 13.360576923076923  3.880709134615384 13.004807692307693  C 3.096454326923077 12.649038461538462  2.4203725961538463 12.16826923076923  1.8524639423076923 11.5625  C 1.2845552884615385 10.95673076923077  0.8338341346153848 10.235576923076923  0.5003004807692307 9.399038461538462  C 0.16676682692307693 8.5625  0 7.685897435897434  0 6.76923076923077  C 0 5.8525641025641  0.16676682692307693 4.975961538461538  0.5003004807692307 4.139423076923077  C 0.8338341346153848 3.302884615384615  1.2845552884615385 2.58173076923077  1.8524639423076923 1.9759615384615383  C 2.4203725961538463 1.3701923076923084  3.096454326923077 0.8894230769230766  3.880709134615384 0.5336538461538467  C 4.6649639423076925 0.17788461538461497  5.486778846153847 0  6.346153846153846 0  C 7.205528846153847 0  8.02734375 0.17788461538461497  8.811598557692308 0.5336538461538467  C 9.595853365384615 0.8894230769230766  10.271935096153847 1.3701923076923084  10.83984375 1.9759615384615383  C 11.407752403846153 2.58173076923077  11.858473557692308 3.302884615384615  12.192007211538462 4.139423076923077  C 12.525540865384615 4.975961538461538  12.692307692307692 5.8525641025641  12.692307692307692 6.76923076923077  C 12.692307692307692 8.179487179487179  12.31971153846154 9.458333333333332  11.574519230769232 10.60576923076923  L 14.666466346153847 13.903846153846153  Z " fill-rule="nonzero" fill="#aaaaaa" stroke="none" transform="matrix(1 0 0 1 38 39 )" />
  </g>
</svg>