<?xml version="1.0" encoding="utf-8"?>
<svg version="1.1" xmlns:xlink="http://www.w3.org/1999/xlink" width="162px" height="146px" xmlns="http://www.w3.org/2000/svg">
  <g transform="matrix(1 0 0 1 -115 -684 )">
    <path d="M 137.74029850746268 133.453125  L 144.42985074626867 126.69084821428571  C 145.45074626865673 125.65885416666666  146.65970149253735 125.14285714285715  148.05671641791045 125.14285714285715  C 149.4537313432836 125.14285714285715  150.66268656716417 125.65885416666666  151.68358208955226 126.69084821428571  L 162 137.11941964285714  L 154.7462686567164 144.45200892857142  L 148.05671641791045 137.68973214285714  L 141.36716417910446 144.45200892857142  C 140.40000000000003 145.48400297619048  139.1910447761194 146  137.74029850746268 146  C 136.28955223880598 146  135.0805970149254 145.48400297619048  134.1134328358209 144.45200892857142  L 127.42388059701491 137.68973214285714  L 120.73432835820896 144.45200892857142  C 119.71343283582091 145.48400297619048  118.5044776119403 146  117.10746268656716 146  C 115.71044776119405 146  114.50149253731344 145.48400297619048  113.48059701492538 144.45200892857142  L 106.7910447761194 137.68973214285714  L 100.10149253731345 144.45200892857142  C 99.08059701492537 145.48400297619048  97.8716417910448 146  96.47462686567164 146  C 95.07761194029852 146  93.86865671641792 145.48400297619048  92.84776119402986 144.45200892857142  L 86.15820895522388 137.68973214285714  L 79.46865671641791 144.45200892857142  C 78.44776119402985 145.48400297619048  77.23880597014926 146  75.84179104477613 146  C 74.44477611940299 146  73.2358208955224 145.48400297619048  72.21492537313434 144.45200892857142  L 65.52537313432836 137.68973214285714  L 58.83582089552239 144.45200892857142  C 57.81492537313433 145.48400297619048  56.605970149253736 146  55.2089552238806 146  C 53.811940298507466 146  52.60298507462688 145.48400297619048  51.582089552238806 144.45200892857142  L 44.89253731343283 137.68973214285714  L 38.202985074626866 144.45200892857142  C 37.182089552238814 145.48400297619048  35.97313432835821 146  34.57611940298508 146  C 33.17910447761194 146  31.970149253731346 145.48400297619048  30.949253731343283 144.45200892857142  L 24.259701492537314 137.68973214285714  L 17.570149253731344 144.45200892857142  C 16.549253731343285 145.48400297619048  15.340298507462688 146  13.943283582089553 146  C 12.54626865671642 146  11.337313432835822 145.48400297619048  10.316417910447761 144.45200892857142  L 0 134.0234375  L 7.253731343283581 126.69084821428571  L 13.943283582089553 133.453125  L 20.632835820895522 126.69084821428571  C 21.65373134328358 125.65885416666666  22.86268656716418 125.14285714285715  24.259701492537314 125.14285714285715  C 25.656716417910452 125.14285714285715  26.86567164179105 125.65885416666666  27.886567164179105 126.69084821428571  L 34.57611940298508 133.453125  L 41.265671641791045 126.69084821428571  C 42.28656716417911 125.65885416666666  43.495522388059705 125.14285714285715  44.89253731343283 125.14285714285715  C 46.289552238805975 125.14285714285715  47.498507462686575 125.65885416666666  48.51940298507463 126.69084821428571  L 55.2089552238806 133.453125  L 61.89850746268657 126.69084821428571  C 62.91940298507463 125.65885416666666  64.12835820895523 125.14285714285715  65.52537313432836 125.14285714285715  C 66.9223880597015 125.14285714285715  68.1313432835821 125.65885416666666  69.15223880597016 126.69084821428571  L 75.84179104477613 133.453125  L 82.53134328358209 126.69084821428571  C 83.55223880597015 125.65885416666666  84.76119402985074 125.14285714285715  86.15820895522388 125.14285714285715  C 87.55522388059703 125.14285714285715  88.76417910447762 125.65885416666666  89.78507462686566 126.69084821428571  L 96.47462686567164 133.453125  L 103.16417910447761 126.69084821428571  C 104.18507462686567 125.65885416666666  105.39402985074628 125.14285714285715  106.7910447761194 125.14285714285715  C 108.18805970149255 125.14285714285715  109.39701492537316 125.65885416666666  110.4179104477612 126.69084821428571  L 117.10746268656716 133.453125  L 123.79701492537313 126.69084821428571  C 124.8179104477612 125.65885416666666  126.0268656716418 125.14285714285715  127.42388059701491 125.14285714285715  C 128.82089552238807 125.14285714285715  130.02985074626866 125.65885416666666  131.05074626865672 126.69084821428571  L 137.74029850746268 133.453125  Z M 24.259701492537314 116.83258928571429  L 17.570149253731344 123.59486607142857  C 16.549253731343285 124.62686011904762  15.340298507462688 125.14285714285715  13.943283582089553 125.14285714285715  C 12.54626865671642 125.14285714285715  11.337313432835822 124.62686011904762  10.316417910447761 123.59486607142857  L 0 113.16629464285715  L 7.253731343283581 105.83370535714285  L 13.943283582089553 112.51450892857143  L 20.632835820895522 105.83370535714285  C 21.65373134328358 104.80171130952381  22.86268656716418 104.28571428571429  24.259701492537314 104.28571428571429  C 25.656716417910452 104.28571428571429  26.86567164179105 104.80171130952381  27.886567164179105 105.83370535714285  L 34.57611940298508 112.51450892857143  L 40 107.30022321428571  L 40 83.42857142857143  L 22.808955223880595 57.84598214285714  C 21.895522388059707 56.43377976190475  21.707462686567165 54.89936755952381  22.244776119402985 53.242745535714285  C 22.78208955223881 51.58612351190475  23.856716417910448 50.4862351190476  25.46865671641791 49.94308035714286  L 40 45.21763392857142  L 40 21  L 50 21  L 50 11  L 71 11  L 71 0  L 91 0  L 91 11  L 111.94925373134328 11  L 111.94925373134328 21  L 122 21  L 122 45.21763392857142  L 136.5313432835821 49.94308035714286  C 138.14328358208957 50.4862351190476  139.2179104477612 51.58612351190475  139.75522388059701 53.242745535714285  C 140.29253731343283 54.89936755952381  140.10447761194033 56.43377976190475  139.1910447761194 57.84598214285714  L 122 83.42857142857143  L 122 107.30022321428571  L 123.79701492537313 105.83370535714285  C 124.8179104477612 104.80171130952381  126.0268656716418 104.28571428571429  127.42388059701491 104.28571428571429  C 128.82089552238807 104.28571428571429  130.02985074626866 104.80171130952381  131.05074626865672 105.83370535714285  L 137.74029850746268 112.51450892857143  L 144.42985074626867 105.83370535714285  C 145.45074626865673 104.80171130952381  146.65970149253735 104.28571428571429  148.05671641791045 104.28571428571429  C 149.4537313432836 104.28571428571429  150.66268656716417 104.80171130952381  151.68358208955226 105.83370535714285  L 162 116.26227678571429  L 154.7462686567164 123.59486607142857  L 148.05671641791045 116.83258928571429  L 141.36716417910446 123.59486607142857  C 140.40000000000003 124.62686011904762  139.1910447761194 125.14285714285715  137.74029850746268 125.14285714285715  C 136.28955223880598 125.14285714285715  135.0805970149254 124.62686011904762  134.1134328358209 123.59486607142857  L 127.42388059701491 116.83258928571429  L 120.73432835820896 123.59486607142857  C 119.71343283582091 124.62686011904762  118.5044776119403 125.14285714285715  117.10746268656716 125.14285714285715  C 115.71044776119405 125.14285714285715  114.50149253731344 124.62686011904762  113.48059701492538 123.59486607142857  L 106.7910447761194 116.83258928571429  L 100.10149253731345 123.59486607142857  C 99.08059701492537 124.62686011904762  97.8716417910448 125.14285714285715  96.47462686567164 125.14285714285715  C 95.07761194029852 125.14285714285715  93.86865671641792 124.62686011904762  92.84776119402986 123.59486607142857  L 86.15820895522388 116.83258928571429  L 79.46865671641791 123.59486607142857  C 78.44776119402985 124.62686011904762  77.23880597014926 125.14285714285715  75.84179104477613 125.14285714285715  C 74.44477611940299 125.14285714285715  73.2358208955224 124.62686011904762  72.21492537313434 123.59486607142857  L 65.52537313432836 116.83258928571429  L 58.83582089552239 123.59486607142857  C 57.81492537313433 124.62686011904762  56.605970149253736 125.14285714285715  55.2089552238806 125.14285714285715  C 53.811940298507466 125.14285714285715  52.60298507462688 124.62686011904762  51.582089552238806 123.59486607142857  L 44.89253731343283 116.83258928571429  L 38.202985074626866 123.59486607142857  C 37.182089552238814 124.62686011904762  35.97313432835821 125.14285714285715  34.57611940298508 125.14285714285715  C 33.17910447761194 125.14285714285715  31.970149253731346 124.62686011904762  30.949253731343283 123.59486607142857  L 24.259701492537314 116.83258928571429  Z M 61 32  L 50.050746268656724 32  L 50.050746268656724 41.714285714285715  L 81 31.28571428571429  L 112 41.714285714285715  L 112 32  L 101 32  L 101 21  L 61 21  L 61 32  Z " fill-rule="nonzero" fill="#000000" stroke="none" transform="matrix(1 0 0 1 115 684 )" />
  </g>
</svg>