<?xml version="1.0" encoding="utf-8"?>
<svg version="1.1" xmlns:xlink="http://www.w3.org/1999/xlink" width="105px" height="94px" xmlns="http://www.w3.org/2000/svg">
  <g transform="matrix(1 0 0 1 -40 -710 )">
    <path d="M 89.27611940298507 85.921875  L 93.61194029850746 81.56808035714286  C 94.27363184079604 80.90364583333333  95.05721393034828 80.57142857142858  95.96268656716418 80.57142857142858  C 96.86815920398011 80.57142857142858  97.65174129353234 80.90364583333333  98.3134328358209 81.56808035714286  L 105 88.28236607142857  L 100.29850746268656 93.00334821428571  L 95.96268656716418 88.64955357142857  L 91.6268656716418 93.00334821428571  C 91.00000000000001 93.66778273809524  90.21641791044777 94  89.27611940298507 94  C 88.3358208955224 94  87.55223880597016 93.66778273809524  86.92537313432835 93.00334821428571  L 82.58955223880596 88.64955357142857  L 78.25373134328358 93.00334821428571  C 77.59203980099502 93.66778273809524  76.80845771144278 94  75.90298507462687 94  C 74.99751243781095 94  74.21393034825871 93.66778273809524  73.55223880597015 93.00334821428571  L 69.21641791044776 88.64955357142857  L 64.88059701492539 93.00334821428571  C 64.21890547263682 93.66778273809524  63.435323383084594 94  62.52985074626866 94  C 61.62437810945274 94  60.8407960199005 93.66778273809524  60.17910447761194 93.00334821428571  L 55.843283582089555 88.64955357142857  L 51.50746268656716 93.00334821428571  C 50.84577114427861 93.66778273809524  50.06218905472637 94  49.15671641791045 94  C 48.25124378109453 94  47.46766169154229 93.66778273809524  46.80597014925373 93.00334821428571  L 42.47014925373134 88.64955357142857  L 38.134328358208954 93.00334821428571  C 37.472636815920396 93.66778273809524  36.68905472636816 94  35.78358208955224 94  C 34.878109452736325 94  34.094527363184085 93.66778273809524  33.43283582089552 93.00334821428571  L 29.097014925373134 88.64955357142857  L 24.761194029850746 93.00334821428571  C 24.09950248756219 93.66778273809524  23.31592039800995 94  22.410447761194032 94  C 21.50497512437811 94  20.721393034825873 93.66778273809524  20.059701492537314 93.00334821428571  L 15.723880597014926 88.64955357142857  L 11.388059701492537 93.00334821428571  C 10.72636815920398 93.66778273809524  9.942786069651742 94  9.037313432835822 94  C 8.131840796019901 94  7.3482587064676625 93.66778273809524  6.686567164179104 93.00334821428571  L 0 86.2890625  L 4.701492537313433 81.56808035714286  L 9.037313432835822 85.921875  L 13.373134328358208 81.56808035714286  C 14.034825870646767 80.90364583333333  14.818407960199005 80.57142857142858  15.723880597014926 80.57142857142858  C 16.629353233830848 80.57142857142858  17.41293532338309 80.90364583333333  18.074626865671643 81.56808035714286  L 22.410447761194032 85.921875  L 26.746268656716417 81.56808035714286  C 27.407960199004982 80.90364583333333  28.191542288557216 80.57142857142858  29.097014925373134 80.57142857142858  C 30.002487562189057 80.57142857142858  30.786069651741297 80.90364583333333  31.44776119402985 81.56808035714286  L 35.78358208955224 85.921875  L 40.11940298507463 81.56808035714286  C 40.78109452736319 80.90364583333333  41.56467661691543 80.57142857142858  42.47014925373134 80.57142857142858  C 43.37562189054727 80.57142857142858  44.15920398009951 80.90364583333333  44.820895522388064 81.56808035714286  L 49.15671641791045 85.921875  L 53.492537313432834 81.56808035714286  C 54.15422885572139 80.90364583333333  54.93781094527363 80.57142857142858  55.843283582089555 80.57142857142858  C 56.74875621890548 80.57142857142858  57.53233830845772 80.90364583333333  58.19402985074627 81.56808035714286  L 62.52985074626866 85.921875  L 66.86567164179104 81.56808035714286  C 67.5273631840796 80.90364583333333  68.31094527363184 80.57142857142858  69.21641791044776 80.57142857142858  C 70.12189054726369 80.57142857142858  70.90547263681593 80.90364583333333  71.56716417910448 81.56808035714286  L 75.90298507462687 85.921875  L 80.23880597014926 81.56808035714286  C 80.90049751243781 80.90364583333333  81.68407960199005 80.57142857142858  82.58955223880596 80.57142857142858  C 83.4950248756219 80.57142857142858  84.27860696517415 80.90364583333333  84.94029850746269 81.56808035714286  L 89.27611940298507 85.921875  Z M 15.723880597014926 75.22098214285714  L 11.388059701492537 79.57477678571429  C 10.72636815920398 80.23921130952381  9.942786069651742 80.57142857142858  9.037313432835822 80.57142857142858  C 8.131840796019901 80.57142857142858  7.3482587064676625 80.23921130952381  6.686567164179104 79.57477678571429  L 0 72.86049107142858  L 4.701492537313433 68.13950892857142  L 9.037313432835822 72.44084821428571  L 13.373134328358208 68.13950892857142  C 14.034825870646767 67.4750744047619  14.818407960199005 67.14285714285714  15.723880597014926 67.14285714285714  C 16.629353233830848 67.14285714285714  17.41293532338309 67.4750744047619  18.074626865671643 68.13950892857142  L 22.410447761194032 72.44084821428571  L 26 69.08370535714286  L 26 53.71428571428571  L 14.783582089552239 37.24330357142857  C 14.191542288557216 36.33407738095237  14.069651741293534 35.346168154761905  14.417910447761194 34.279575892857146  C 14.766169154228857 33.21298363095237  15.46268656716418 32.504836309523796  16.507462686567163 32.15513392857143  L 26 29.11272321428571  L 26 13.428571428571432  L 32.44029850746269 13.428571428571432  L 32.44029850746269 7  L 45.8134328358209 7  L 45.8134328358209 0  L 59.1865671641791 0  L 59.1865671641791 7  L 72.55970149253731 7  L 72.55970149253731 13.428571428571432  L 79 13.428571428571432  L 79 29.11272321428571  L 88.49253731343283 32.15513392857143  C 89.53731343283583 32.504836309523796  90.23383084577115 33.21298363095237  90.58208955223881 34.279575892857146  C 90.93034825870647 35.346168154761905  90.8084577114428 36.33407738095237  90.21641791044776 37.24330357142857  L 79 53.71428571428571  L 79 69.08370535714286  L 80.23880597014926 68.13950892857142  C 80.90049751243781 67.4750744047619  81.68407960199005 67.14285714285714  82.58955223880596 67.14285714285714  C 83.4950248756219 67.14285714285714  84.27860696517415 67.4750744047619  84.94029850746269 68.13950892857142  L 89.27611940298507 72.44084821428571  L 93.61194029850746 68.13950892857142  C 94.27363184079604 67.4750744047619  95.05721393034828 67.14285714285714  95.96268656716418 67.14285714285714  C 96.86815920398011 67.14285714285714  97.65174129353234 67.4750744047619  98.3134328358209 68.13950892857142  L 105 74.85379464285714  L 100.29850746268656 79.57477678571429  L 95.96268656716418 75.22098214285714  L 91.6268656716418 79.57477678571429  C 91.00000000000001 80.23921130952381  90.21641791044777 80.57142857142858  89.27611940298507 80.57142857142858  C 88.3358208955224 80.57142857142858  87.55223880597016 80.23921130952381  86.92537313432835 79.57477678571429  L 82.58955223880596 75.22098214285714  L 78.25373134328358 79.57477678571429  C 77.59203980099502 80.23921130952381  76.80845771144278 80.57142857142858  75.90298507462687 80.57142857142858  C 74.99751243781095 80.57142857142858  74.21393034825871 80.23921130952381  73.55223880597015 79.57477678571429  L 69.21641791044776 75.22098214285714  L 64.88059701492539 79.57477678571429  C 64.21890547263682 80.23921130952381  63.435323383084594 80.57142857142858  62.52985074626866 80.57142857142858  C 61.62437810945274 80.57142857142858  60.8407960199005 80.23921130952381  60.17910447761194 79.57477678571429  L 55.843283582089555 75.22098214285714  L 51.50746268656716 79.57477678571429  C 50.84577114427861 80.23921130952381  50.06218905472637 80.57142857142858  49.15671641791045 80.57142857142858  C 48.25124378109453 80.57142857142858  47.46766169154229 80.23921130952381  46.80597014925373 79.57477678571429  L 42.47014925373134 75.22098214285714  L 38.134328358208954 79.57477678571429  C 37.472636815920396 80.23921130952381  36.68905472636816 80.57142857142858  35.78358208955224 80.57142857142858  C 34.878109452736325 80.57142857142858  34.094527363184085 80.23921130952381  33.43283582089552 79.57477678571429  L 29.097014925373134 75.22098214285714  L 24.761194029850746 79.57477678571429  C 24.09950248756219 80.23921130952381  23.31592039800995 80.57142857142858  22.410447761194032 80.57142857142858  C 21.50497512437811 80.57142857142858  20.721393034825873 80.23921130952381  20.059701492537314 79.57477678571429  L 15.723880597014926 75.22098214285714  Z M 39.12686567164179 20.142857142857146  L 32.44029850746269 20.142857142857146  L 32.44029850746269 26.857142857142854  L 52.5 20.142857142857146  L 72.55970149253731 26.857142857142854  L 72.55970149253731 20.142857142857146  L 65.8731343283582 20.142857142857146  L 65.8731343283582 14  L 39.12686567164179 14  L 39.12686567164179 20.142857142857146  Z " fill-rule="nonzero" fill="#000000" stroke="none" transform="matrix(1 0 0 1 40 710 )" />
  </g>
</svg>