<?xml version="1.0" encoding="utf-8"?>
<svg version="1.1" xmlns:xlink="http://www.w3.org/1999/xlink" width="50px" height="32px" xmlns="http://www.w3.org/2000/svg">
  <g transform="matrix(1 0 0 1 -333 -109 )">
    <path d="M 39.82077205882353 19  L 14.246323529411764 19  C 12.561274509803924 20.606060606060602  10.50857843137255 21.090909090909093  8.088235294117647 21.090909090909093  L 5.147058823529411 21.090909090909093  L 5.147058823529411 19.636363636363637  L 3.6764705882352944 19.636363636363637  C 3.477328431372549 19.636363636363637  3.3049938725490198 19.45833333333333  3.1594669117647056 19.102272727272727  C 3.0139399509803924 18.746212121212118  2.941176470588235 18.31818181818182  2.941176470588235 17.81818181818182  C 2.941176470588235 17.454545454545453  2.994791666666667 17.083333333333332  3.1020220588235294 16.704545454545453  C 2.213541666666667 16.674242424242422  1.474417892156863 16.59469696969697  0.8846507352941176 16.465909090909093  C 0.29488357843137253 16.33712121212121  0 16.18181818181818  0 16  C 0 15.818181818181817  0.29488357843137253 15.662878787878785  0.8846507352941176 15.53409090909091  C 1.474417892156863 15.405303030303028  2.213541666666667 15.325757575757574  3.1020220588235294 15.295454545454547  C 2.994791666666667 14.916666666666664  2.941176470588235 14.545454545454547  2.941176470588235 14.181818181818183  C 2.941176470588235 13.681818181818183  3.0139399509803924 13.253787878787879  3.1594669117647056 12.897727272727273  C 3.3049938725490198 12.541666666666664  3.477328431372549 12.363636363636363  3.6764705882352944 12.363636363636363  L 5.147058823529411 12.363636363636363  L 5.147058823529411 10.90909090909091  L 8.088235294117647 10.90909090909091  C 10.50857843137255 10.90909090909091  12.561274509803924 11.393939393939391  14.246323529411764 13  L 39.82077205882353 13  C 40.46415441176471 12.469696969696969  41.27987132352941 12.606060606060606  42.267922794117645 12.772727272727273  C 43.255974264705884 12.939393939393938  43.872549019607845 13.045454545454547  44.11764705882353 13.09090909090909  C 45.48100490196079 13.318181818181817  46.629901960784316 13.625  47.564338235294116 14.011363636363637  C 48.49877450980393 14.397727272727273  49.138327205882355 14.757575757575754  49.48299632352941 15.09090909090909  C 49.82766544117647 15.424242424242422  50 15.727272727272727  50 16  C 50 16.272727272727273  49.82766544117647 16.575757575757574  49.48299632352941 16.909090909090907  C 49.138327205882355 17.242424242424242  48.49877450980393 17.602272727272727  47.564338235294116 17.988636363636363  C 46.629901960784316 18.375  45.48100490196079 18.68181818181818  44.11764705882353 18.909090909090907  C 43.872549019607845 18.954545454545453  43.255974264705884 19.060606060606055  42.267922794117645 19.227272727272727  C 41.27987132352941 19.39393939393939  40.46415441176471 19.53030303030303  39.82077205882353 19  Z M 41.81985294117647 13.227272727272727  L 39.958639705882355 13.90909090909091  C 40.770526960784316 14.454545454545453  41.17647058823529 15.151515151515152  41.17647058823529 16  C 41.17647058823529 16.848484848484844  40.770526960784316 17.545454545454547  39.958639705882355 18.090909090909093  L 41.81985294117647 18.772727272727273  C 42.86151960784314 18.045454545454547  43.38235294117647 17.121212121212118  43.38235294117647 16  C 43.38235294117647 14.878787878787879  42.86151960784314 13.954545454545453  41.81985294117647 13.227272727272727  Z M 8.088235294117647 21.454545454545453  C 10.49325980392157 21.454545454545453  12.584252450980394 20.96969696969697  14.361213235294118 20  L 37.68382352941176 20  C 34.35968137254902 20.575757575757574  30.867034313725494 21.18181818181818  27.205882352941174 21.81818181818182  C 26.332720588235293 21.81818181818182  25.467218137254903 22  24.609375 22.363636363636363  C 23.7515318627451 22.727272727272727  23.115808823529413 23.090909090909093  22.702205882352942 23.454545454545453  L 22.058823529411764 24  L 15.441176470588236 30.545454545454547  C 15.042892156862747 30.939393939393938  14.502910539215689 31.280303030303028  13.82123161764706 31.568181818181817  C 13.139552696078432 31.85606060606061  12.45404411764706 32  11.76470588235294 32  L 9.558823529411764 32  L 7.421875 21.454545454545453  L 8.088235294117647 21.454545454545453  Z M 14.361213235294118 12  C 12.584252450980394 11.030303030303028  10.49325980392157 10.545454545454543  8.088235294117647 10.545454545454547  L 7.421875 10.545454545454547  L 9.558823529411764 0  L 11.76470588235294 0  C 12.46936274509804 0  13.158700980392158 0.14393939393939092  13.832720588235295 0.43181818181818343  C 14.506740196078432 0.7196969696969653  15.042892156862747 1.0606060606060588  15.441176470588236 1.4545454545454533  L 22.058823529411764 8  C 22.120098039215687 8.060606060606059  22.204350490196077 8.140151515151512  22.311580882352942 8.238636363636363  C 22.418811274509807 8.337121212121211  22.65242034313726 8.511363636363637  23.012408088235293 8.761363636363637  C 23.372395833333336 9.011363636363637  23.743872549019613 9.231060606060606  24.12683823529412 9.420454545454547  C 24.50980392156863 9.609848484848484  24.980851715686274 9.78409090909091  25.539981617647058 9.943181818181817  C 26.09911151960785 10.102272727272727  26.65441176470588 10.181818181818183  27.205882352941174 10.181818181818183  L 37.68382352941176 12  L 14.361213235294118 12  Z " fill-rule="nonzero" fill="#000000" stroke="none" transform="matrix(1 0 0 1 333 109 )" />
  </g>
</svg>