<?xml version="1.0" encoding="utf-8"?>
<svg version="1.1" xmlns:xlink="http://www.w3.org/1999/xlink" width="43px" height="43px" xmlns="http://www.w3.org/2000/svg">
  <g transform="matrix(1 0 0 1 -301 -182 )">
    <path d="M 37.667141838916606 0.4293865905848778  C 39.62865288667142 -0.2249167855444696  41.140650985982425 -0.10223490252021605  42.20313613684961 0.7974322396576337  C 43.10216203373724 1.8606752258678023  43.22475647422191 3.3737517831669055  42.570919458303635 5.336661911554923  C 41.917082442385365 7.299572039942937  40.81373247802328 9.058012363290533  39.26086956521739 10.611982881597715  L 34.32644333570919 15.549928673323823  L 39.23022095509622 36.896576319543506  C 39.33238298883346 37.28506894912031  39.20978854834878 37.622444127437  38.862437633642195 37.90870185449358  L 34.93941553813257 40.853067047075605  C 34.79638869090046 40.97574893009986  34.60228082679971 41.03708987161198  34.35709194583037 41.03708987161198  C 34.275362318840585 41.03708987161198  34.20384889522452 41.026866381359966  34.14255167498218 41.00641940085592  C 33.83606557377049 40.9450784593438  33.62152530292231 40.78150261531146  33.49893086243763 40.515691868758914  L 24.9479686386315 24.93509272467903  L 17.009978617248755 32.878744650499286  L 18.634354953670705 38.828815977175466  C 18.736516987407935 39.176414645744174  18.654787360418155 39.493342843556825  18.389166072701354 39.77960057061341  L 15.446899501069137 42.72396576319544  C 15.263007840342123 42.907988587731815  15.028035162746496 43  14.741981468282251 43  L 14.680684248039915 43  C 14.374198146828226 42.95910603899192  14.129009265858873 42.826200665715646  13.945117605131859 42.60128388017118  L 8.152530292230933 34.87232524964337  L 0.42908054169636495 29.075606276747507  C 0.2043240674744595 28.932477413219203  0.07151342361606083 28.69733713742272  0.030648610121168925 28.37018544935806  C 0.010216203373722973 28.10437470280551  0.10216203373722975 27.848787446504993  0.30648610121168923 27.60342368045649  L 3.2487526728439056 24.628388017118404  C 3.4326443335709196 24.444365192582026  3.6676170111665485 24.352353780313834  3.9536707056307914 24.352353780313834  C 4.076265146115467 24.352353780313834  4.157994773105251 24.362577270565858  4.198859586600142 24.3830242510699  L 10.144689950106914 26.008559201141225  L 18.082679971489664 18.06490727532097  L 2.5131860299358517 9.507845934379459  C 2.227132335471609 9.34427009034712  2.053456878118318 9.098906324298618  1.99215965787598 8.77175463623395  C 1.9512948443810882 8.44460294816928  2.0432406747445953 8.168568711364717  2.2679971489665003 7.943651925820257  L 6.191019244476123 4.017831669044225  C 6.477072938940366 3.752020922491675  6.783559040152055 3.6702330004755064  7.110477548111191 3.7724679029957224  L 27.491803278688526 8.649072753209703  L 32.39558089807556 3.7417974322396566  C 33.94844381088145 2.1878269139324735  35.705630791161795 1.0836899667142157  37.667141838916606 0.4293865905848778  Z " fill-rule="nonzero" fill="#000000" stroke="none" transform="matrix(1 0 0 1 301 182 )" />
  </g>
</svg>