<?xml version="1.0" encoding="utf-8"?>
<svg version="1.1" xmlns:xlink="http://www.w3.org/1999/xlink" width="50px" height="30px" xmlns="http://www.w3.org/2000/svg">
  <g transform="matrix(1 0 0 1 -277 -249 )">
    <path d="M 49.791666666666664 14.739583333333332  L 50 15  C 49.98263888888889 15.555555555555552  47.48263888888889 16.38888888888889  42.5 17.499999999999996  L 33.33333333333333 18.333333333333336  L 27.500000000000004 20.000000000000004  L 25.833333333333336 20.000000000000004  L 18.203125 29.166666666666668  L 20 29.166666666666668  C 20.451388888888893 29.166666666666668  20.842013888888893 29.205729166666668  21.171875 29.283854166666668  C 21.501736111111114 29.361979166666664  21.666666666666668 29.461805555555554  21.666666666666668 29.583333333333336  C 21.666666666666668 29.704861111111114  21.501736111111114 29.8046875  21.171875 29.8828125  C 20.842013888888893 29.9609375  20.451388888888893 30  20 30  L 17.5 30  L 13.333333333333334 30  L 11.666666666666666 30  L 11.666666666666666 29.166666666666668  L 14 29.166666666666668  L 14 18.333333333333336  L 9.166666666666666 18.333333333333336  L 4.166666666666666 24.166666666666668  L 1.6666666666666667 24.166666666666668  L 0.8333333333333334 23.333333333333332  L 0.8333333333333334 18.333333333333336  L 1.6666666666666667 18.333333333333336  L 1.6666666666666667 17.499999999999996  L 5 17.499999999999996  L 5 17.291666666666664  L 0 16.666666666666668  L 0 13.333333333333332  L 5 12.708333333333336  L 5 12.499999999999998  L 1.6666666666666667 12.499999999999998  L 1.6666666666666667 11.666666666666664  L 0.8333333333333334 11.666666666666664  L 0.8333333333333334 6.666666666666666  L 1.6666666666666667 5.833333333333332  L 4.166666666666666 5.833333333333332  L 9.166666666666666 11.666666666666664  L 14 11.666666666666664  L 14 0.8333333333333337  L 11.666666666666666 0.8333333333333337  L 11.666666666666666 0  L 13.333333333333334 0  L 17.5 0  L 20 0  C 20.451388888888893 0  20.842013888888893 0.03906250000000111  21.171875 0.1171875  C 21.501736111111114 0.1953124999999989  21.666666666666668 0.2951388888888873  21.666666666666668 0.4166666666666652  C 21.666666666666668 0.5381944444444398  21.501736111111114 0.6380208333333348  21.171875 0.7161458333333337  C 20.842013888888893 0.7942708333333326  20.451388888888893 0.8333333333333337  20 0.8333333333333337  L 18.203125 0.8333333333333337  L 25.833333333333336 10.000000000000002  L 27.500000000000004 10.000000000000002  L 33.33333333333333 11.666666666666664  L 42.5 12.499999999999998  C 44.72222222222222 12.98611111111111  46.458333333333336 13.437499999999998  47.708333333333336 13.854166666666668  C 48.95833333333333 14.270833333333332  49.65277777777778 14.56597222222222  49.791666666666664 14.739583333333332  Z " fill-rule="nonzero" fill="#000000" stroke="none" transform="matrix(1 0 0 1 277 249 )" />
  </g>
</svg>