<?xml version="1.0" encoding="utf-8"?>
<svg version="1.1" xmlns:xlink="http://www.w3.org/1999/xlink" width="50px" height="50px" xmlns="http://www.w3.org/2000/svg">
  <g transform="matrix(1 0 0 1 -323 -327 )">
    <path d="M 42.28413962033068 11.887254901960787  C 42.855684833639515 11.315359477124181  43.14145744029394 10.620915032679735  43.14145744029394 9.80392156862745  C 43.14145744029394 8.98692810457516  42.855684833639515 8.292483660130712  42.28413962033068 7.720588235294118  C 41.71259440702185 7.148692810457513  41.01857521943254 6.8627450980392135  40.20208205756276 6.8627450980392135  C 39.385588895693004 6.8627450980392135  38.69156970810369 7.148692810457513  38.120024494794855 7.720588235294118  C 37.548479281486024 8.292483660130712  37.2627066748316 8.98692810457516  37.2627066748316 9.80392156862745  C 37.2627066748316 10.620915032679735  37.548479281486024 11.315359477124181  38.120024494794855 11.887254901960787  C 38.69156970810369 12.45915032679738  39.385588895693004 12.745098039215685  40.20208205756276 12.745098039215685  C 41.01857521943254 12.745098039215685  41.71259440702185 12.45915032679738  42.28413962033068 11.887254901960787  Z M 49.69381506429883 0.2910539215686292  C 49.89793835476628 0.48508986928104125  50 0.7148692810457491  50 0.9803921568627472  C 50 6.0661764705882355  49.22943457848541 10.462622549019606  47.688303735456216 14.169730392156865  C 46.14717289242703 17.87683823529412  43.5599101857522 21.55841503267974  39.92651561543172 25.214460784313726  C 38.27311696264544 26.8484477124183  36.282914880587875 28.645833333333336  33.95590936925903 30.60661764705882  L 33.3435394978567 42.21813725490196  C 33.30271483976322 42.54493464052288  33.13941620738927 42.810457516339866  32.85364360073484 43.01470588235294  L 21.096142069810163 49.877450980392155  C 20.953255766482958 49.959150326797385  20.789957134109002 50  20.6062461726883 50  C 20.36129822412737 50  20.126556440089814 49.908088235294116  19.90202082057563 49.724264705882355  L 17.94243723208818 47.763480392156865  C 17.67707695448051 47.477532679738566  17.595427638293533 47.150735294117645  17.69748928352725 46.783088235294116  L 20.30006123698714 38.32720588235294  L 11.696264543784446 29.71813725490196  L 3.245560318432333 32.32230392156863  C 3.184323331292101 32.34272875816993  3.0924678505817513 32.35294117647059  2.969993876301286 32.35294117647059  C 2.684221269646867 32.35294117647059  2.4494794856093085 32.26102941176471  2.26576852418861 32.07720588235294  L 0.3061849357011635 30.116421568627448  C -0.040824658093488536 29.728349673202615  -0.09185548071034905 29.33006535947712  0.15309246785058175 28.921568627450977  L 7.011635027556644 17.15686274509804  C 7.215758318024087 16.870915032679733  7.481118595631762 16.707516339869276  7.807715860379669 16.666666666666668  L 19.412124923453767 16.053921568627448  C 21.37170851194121 13.725490196078432  23.167993468054707 11.734068627450982  24.800979791794244 10.079656862745095  C 28.638497652582164 6.260212418300654  32.29230455194938 3.6254084967320246  35.762400489895896 2.1752450980392135  C 39.23249642784242 0.7250816993464027  43.6313533374158 0  48.95897121861604 0  C 49.24474382527047 0  49.4896917738314 0.09701797385620603  49.69381506429883 0.2910539215686292  Z " fill-rule="nonzero" fill="#000000" stroke="none" transform="matrix(1 0 0 1 323 327 )" />
  </g>
</svg>