<?xml version="1.0" encoding="utf-8"?>
<svg version="1.1" xmlns:xlink="http://www.w3.org/1999/xlink" width="164px" height="195px" xmlns="http://www.w3.org/2000/svg">
  <g transform="matrix(1 0 0 1 -114 -364 )">
    <path d="M 52.18181818181818 105  L 67.0909090909091 180  L 78.27272727272728 127.5  L 67.0909090909091 112.49999999999999  L 52.18181818181818 105  Z M 85.72727272727272 127.5  L 96.90909090909092 180  L 111.81818181818181 105  L 96.90909090909092 112.49999999999999  L 85.72727272727272 127.5  Z M 115.07954545454545 64.80468749999999  C 115.2348484848485 64.1015625  115.39015151515152 63.046875  115.54545454545455 61.64062500000001  C 115.39015151515152 61.328124999999986  115.2348484848485 61.09375  115.07954545454545 60.9375  C 114.30303030303033 60.31249999999998  110.57575757575759 60  103.89772727272728 60  C 98.46212121212122 60  91.9782196969697 60.742187499999986  84.44602272727272 62.22656249999999  C 83.90246212121212 62.38281249999999  83.08712121212122 62.4609375  82 62.4609375  C 80.9128787878788 62.4609375  80.09753787878789 62.38281249999999  79.55397727272728 62.22656249999999  C 72.02178030303031 60.742187499999986  65.5378787878788 60  60.10227272727273 60  C 53.42424242424242 60  49.696969696969695 60.31249999999998  48.92045454545454 60.9375  C 48.765151515151516 61.09375  48.60984848484849 61.328124999999986  48.45454545454546 61.64062500000001  C 48.60984848484849 63.046875  48.765151515151516 64.1015625  48.92045454545454 64.80468749999999  C 49.07575757575758 65.0390625  49.36695075757576 65.29296874999999  49.79403409090909 65.56640624999999  C 50.22111742424242 65.83984375  50.51231060606061 66.24999999999999  50.66761363636364 66.79687499999999  C 50.82291666666667 67.10937499999999  51.11410984848485 67.91015625  51.54119318181818 69.19921875  C 51.968276515151516 70.48828125  52.24005681818182 71.2890625  52.35653409090909 71.6015625  C 52.47301136363636 71.91406249999997  52.76420454545454 72.57812499999999  53.23011363636364 73.59375  C 53.69602272727273 74.60937499999999  54.02604166666667 75.2734375  54.22017045454546 75.5859375  C 54.41429924242425 75.8984375  54.76373106060607 76.44531249999999  55.26846590909091 77.2265625  C 55.77320075757576 78.00781249999997  56.23910984848485 78.53515624999999  56.66619318181818 78.80859375  C 57.09327651515153 79.08203125  57.63683712121213 79.45312500000001  58.296875 79.92187500000001  C 58.95691287878788 80.390625  59.63636363636364 80.703125  60.33522727272727 80.859375  C 61.03409090909091 81.01562499999999  61.83001893939394 81.171875  62.72301136363636 81.328125  C 63.616003787878796 81.48437499999999  64.56723484848486 81.56249999999999  65.57670454545455 81.56249999999999  C 68.3721590909091 81.56249999999999  70.6628787878788 81.07421875  72.44886363636364 80.09765625  C 74.2348484848485 79.12109374999999  75.49668560606061 77.94921874999999  76.234375 76.58203125  C 76.97206439393939 75.21484374999999  77.53503787878789 73.86718749999999  77.92329545454545 72.5390625  C 78.31155303030303 71.21093749999999  78.75804924242425 70.05859374999999  79.2627840909091 69.08203124999999  C 79.76751893939394 68.10546874999997  80.4469696969697 67.6171875  81.30113636363636 67.6171875  L 82.69886363636364 67.6171875  C 83.55303030303031 67.6171875  84.23248106060606 68.10546874999997  84.73721590909092 69.08203124999999  C 85.24195075757576 70.05859374999999  85.68844696969698 71.21093749999999  86.07670454545455 72.5390625  C 86.46496212121212 73.86718749999999  87.02793560606062 75.21484374999999  87.765625 76.58203125  C 88.50331439393939 77.94921874999999  89.76515151515152 79.12109374999999  91.55113636363636 80.09765625  C 93.33712121212122 81.07421875  95.62784090909092 81.56249999999999  98.42329545454545 81.56249999999999  C 99.43276515151516 81.56249999999999  100.38399621212122 81.48437499999999  101.27698863636364 81.328125  C 102.16998106060606 81.171875  102.96590909090908 81.01562499999999  103.66477272727272 80.859375  C 104.36363636363636 80.703125  105.04308712121212 80.390625  105.703125 79.92187500000001  C 106.36316287878788 79.45312500000001  106.90672348484848 79.08203125  107.33380681818181 78.80859375  C 107.76089015151516 78.53515624999999  108.22679924242426 78.00781249999997  108.73153409090908 77.2265625  C 109.23626893939395 76.44531249999999  109.58570075757576 75.8984375  109.77982954545455 75.5859375  C 109.97395833333334 75.2734375  110.3039772727273 74.60937499999999  110.76988636363636 73.59375  C 111.23579545454547 72.57812499999999  111.52698863636365 71.91406249999997  111.64346590909092 71.6015625  C 111.75994318181819 71.2890625  112.0317234848485 70.48828125  112.45880681818181 69.19921875  C 112.88589015151516 67.91015625  113.17708333333334 67.10937499999999  113.33238636363636 66.79687499999999  C 113.48768939393942 66.24999999999999  113.77888257575759 65.83984375  114.20596590909092 65.56640624999999  C 114.63304924242426 65.29296874999999  114.92424242424244 65.0390625  115.07954545454545 64.80468749999999  Z M 163.0681818181818 147.24609375  C 163.68939393939394 152.83203125  164 158.63281250000003  164 164.6484375  C 164 174.1015625  161.16571969696972 181.5234375  155.4971590909091 186.9140625  C 149.8285984848485 192.3046875  142.29640151515153 195  132.9005681818182 195  L 31.09943181818182 195  C 21.703598484848488 195  14.171401515151516 192.3046875  8.50284090909091 186.9140625  C 2.8342803030303028 181.5234375  0 174.1015625  0 164.6484375  C 0 159.8828125  0.1747159090909091 155.2734375  0.5241477272727273 150.8203125  C 0.8735795454545455 146.3671875  1.6112689393939394 141.46484375  2.7372159090909087 136.11328125  C 3.8631628787878793 130.76171875  5.319128787878789 125.93749999999999  7.105113636363637 121.64062499999999  C 8.891098484848486 117.34375  11.35653409090909 113.30078124999999  14.501420454545455 109.51171875  C 17.64630681818182 105.72265625  21.276515151515156 102.81249999999999  25.392045454545453 100.78125000000001  L 14.90909090909091 75  L 39.83522727272727 75  C 38.126893939393945 69.99999999999999  37.27272727272727 64.99999999999999  37.27272727272727 60  C 37.27272727272727 59.06250000000001  37.35037878787879 57.81249999999999  37.50568181818182 56.24999999999999  C 22.44128787878788 53.124999999999986  14.90909090909091 49.375  14.90909090909091 44.99999999999999  C 14.90909090909091 40.546875  23.0625 36.67968750000001  39.36931818181818 33.39843749999999  C 40.689393939393945 28.55468749999999  42.68892045454546 23.3203125  45.36789772727273 17.695312499999996  C 48.046875 12.070312499999995  50.78409090909091 7.6171875  53.57954545454546 4.33593749999999  C 56.06439393939394 1.445312500000011  59.01515151515153 0  62.43181818181818 0  C 64.76136363636364 0  68.02272727272728 1.2109375000000226  72.2159090909091 3.6328125000000036  C 76.4090909090909 6.054687499999984  79.67045454545455 7.265625000000007  82 7.265625000000007  C 84.32954545454545 7.265625000000007  87.59090909090908 6.054687499999984  91.78409090909092 3.6328125000000036  C 95.97727272727272 1.2109375000000226  99.23863636363636 0  101.56818181818181 0  C 104.98484848484848 0  107.93560606060606 1.445312500000011  110.42045454545455 4.33593749999999  C 113.21590909090911 7.6171875  115.95312500000001 12.070312499999995  118.63210227272728 17.695312499999996  C 121.31107954545455 23.3203125  123.31060606060606 28.55468749999999  124.63068181818181 33.39843749999999  C 140.9375 36.67968750000001  149.0909090909091 40.546875  149.0909090909091 44.99999999999999  C 149.0909090909091 49.375  141.55871212121212 53.124999999999986  126.49431818181819 56.24999999999999  C 127.0378787878788 62.57812500000001  126.26136363636364 68.82812499999999  124.16477272727272 75  L 149.0909090909091 75  L 139.53977272727272 101.36718750000001  C 144.4318181818182 103.9453125  148.60558712121212 107.71484375  152.06107954545456 112.67578124999999  C 155.516571969697 117.63671875  158.0596590909091 123.2421875  159.6903409090909 129.4921875  C 161.32102272727272 135.74218749999997  162.44696969696972 141.66015624999997  163.0681818181818 147.24609375  Z " fill-rule="nonzero" fill="#000000" stroke="none" transform="matrix(1 0 0 1 114 364 )" />
  </g>
</svg>